# xmcd
#
# Track frame offsets: 
#        150
#        14197
#        25575
#        46625
#        62762
#        84917
#        100805
#        124632
#        143657
#        160932
#        182842
#
# Disc length: 2621 seconds
#
# Revision: 1
# Processed by: cddbd v1.5.2PL0 Copyright (c) Steve Scherf et al.
# Submitted via: ExactAudioCopy v1.0b3
#
DISCID=830a3b0b
DTITLE=Various Artist - Musik in Esslingen
DYEAR=1991
DGENRE=Jazz
TTITLE0=Eckhart Fischer Quartett - City Groove
TTITLE1=Eckhart Fischer Quartett - The Vamp
TTITLE2=Esslinger Jazz Projekt - A Piece Of Rock
TTITLE3=Esslinger Jazz Projekt - Cariffity
TTITLE4=Taxus Baccata - Malta
TTITLE5=Sandyani - Dzigbo
TTITLE6=Habson's Choice - Machine-Story
TTITLE7=Kaktus - Trotzdem frei
TTITLE8=Life? - Last Kiss and Angel
TTITLE9=Picture this - Hours by Hours
TTITLE10=Why the Box - Head for Succes
EXTD=YEAR: 1991
EXTT0=
EXTT1=
EXTT2=
EXTT3=
EXTT4=
EXTT5=
EXTT6=
EXTT7=
EXTT8=
EXTT9=
EXTT10=
PLAYORDER=
